<?xml version="1.0" standalone="no"?>
<!DOCTYPE svg PUBLIC "-//W3C//DTD SVG 20010904//EN"
 "http://www.w3.org/TR/2001/REC-SVG-20010904/DTD/svg10.dtd">
<svg version="1.0" xmlns="http://www.w3.org/2000/svg"
 width="1000.000000pt" height="1000.000000pt" viewBox="0 0 1000.000000 1000.000000"
 preserveAspectRatio="xMidYMid meet">
<metadata>
Created by potrace 1.11, written by Peter Selinger 2001-2013
</metadata>
<g transform="translate(0.000000,1000.000000) scale(0.100000,-0.100000)"
fill="#000000" stroke="none">
<path d="M2455 9560 c-142 -37 -231 -88 -353 -203 -113 -107 -135 -111 -257
-49 -117 58 -241 65 -408 22 -268 -68 -401 -232 -483 -594 -36 -159 -57 -191
-179 -278 -62 -45 -190 -177 -234 -241 -51 -75 -117 -224 -140 -312 -31 -124
-41 -214 -48 -420 -12 -374 33 -688 168 -1185 177 -650 423 -1191 737 -1624
36 -50 92 -127 124 -171 67 -93 148 -251 177 -347 43 -142 81 -191 194 -249
223 -115 184 -103 362 -107 131 -2 169 -7 207 -23 26 -10 58 -19 72 -19 21 0
26 -5 26 -24 0 -12 -27 -173 -60 -357 -102 -563 -147 -921 -137 -1084 16 -251
166 -405 412 -422 99 -7 78 -10 948 149 395 72 719 129 721 127 2 -2 0 -38 -5
-79 -23 -215 -40 -433 -54 -680 -17 -327 -22 -386 -41 -548 -29 -250 -84 -469
-163 -651 l-40 -91 1403 0 1403 0 144 295 c120 246 145 291 152 272 34 -93 91
-355 112 -519 l6 -48 470 0 469 0 0 188 c0 206 -9 388 -45 962 -13 212 -29
491 -35 620 -6 129 -15 267 -21 305 -23 162 -112 270 -271 330 -61 23 -70 34
-79 102 -11 77 -48 128 -124 168 -61 33 -93 70 -82 97 3 9 38 25 79 38 96 29
188 78 274 145 123 98 218 222 399 520 l91 150 89 6 c104 7 159 21 230 56 118
60 216 161 334 343 143 221 168 315 117 443 -33 82 -33 133 0 222 49 131 103
292 143 425 28 94 52 151 82 196 23 35 47 81 54 102 11 32 18 37 46 40 48 5
59 18 59 73 0 27 5 68 11 91 10 35 9 59 -5 124 -23 117 -21 164 10 209 l26 38
-22 85 c-11 47 -43 135 -70 195 l-49 110 24 29 c31 37 31 69 0 136 -39 83 -36
92 31 92 74 0 94 12 94 55 0 49 -44 89 -225 209 l-149 99 62 25 c34 14 62 29
62 33 0 14 -85 69 -139 90 -44 16 -75 20 -161 18 -59 -1 -112 1 -119 5 -6 4
-46 60 -88 124 -42 64 -113 154 -157 200 -84 88 -193 178 -203 169 -3 -4 -8
-26 -10 -52 -3 -25 -7 -45 -10 -45 -2 0 -48 39 -103 88 -54 48 -125 102 -157
121 -32 18 -78 47 -102 64 -32 21 -49 27 -60 20 -26 -17 -23 -31 11 -49 18 -9
61 -39 96 -65 35 -27 67 -49 73 -49 12 0 12 -37 0 -44 -5 -4 -22 4 -38 17 -27
22 -217 103 -313 133 -57 18 -174 34 -200 27 -26 -7 -25 -15 5 -51 14 -17 25
-34 25 -39 0 -6 -112 -13 -272 -17 -262 -7 -276 -6 -343 15 -61 19 -78 30
-138 90 -37 38 -73 69 -81 69 -9 0 -15 -16 -19 -45 -5 -49 -27 -81 -67 -97
-14 -6 -83 -14 -155 -18 -141 -8 -219 -29 -213 -58 2 -9 23 -31 48 -50 25 -18
58 -45 74 -60 l29 -26 -24 -10 c-220 -89 -442 -244 -529 -367 -23 -33 -41 -62
-39 -63 2 -2 14 -9 27 -15 32 -17 27 -39 -13 -62 -19 -12 -35 -24 -35 -28 0
-4 -23 -36 -50 -71 -28 -34 -49 -67 -47 -74 2 -6 18 -12 36 -14 l32 -3 -69
-74 c-65 -69 -142 -194 -142 -229 0 -11 9 -16 33 -16 63 0 63 -6 -12 -158 -38
-79 -84 -188 -102 -244 -28 -84 -38 -104 -64 -119 -16 -11 -33 -19 -36 -19 -3
0 -9 80 -12 178 -14 373 -87 628 -243 842 -30 41 -76 107 -103 146 -69 99
-184 202 -336 302 -192 125 -223 159 -259 285 -12 42 -28 69 -59 99 -58 56
-220 176 -296 218 -35 19 -106 64 -158 99 -221 147 -389 203 -614 205 l-115 1
77 117 c90 136 119 206 126 303 6 86 -26 204 -78 290 -93 154 -368 340 -583
395 -104 26 -272 27 -371 0z m310 -96 c33 -8 80 -27 105 -41 62 -37 150 -130
188 -200 28 -54 31 -67 33 -163 3 -122 0 -130 -96 -260 -190 -259 -312 -480
-384 -697 -23 -68 -41 -127 -41 -133 0 -20 18 -9 96 60 102 90 189 149 305
205 124 59 227 85 369 92 287 14 534 -85 755 -302 127 -124 150 -173 142 -298
-7 -104 -3 -107 122 -107 l98 0 78 -51 c155 -100 261 -225 363 -426 105 -205
137 -299 162 -470 20 -134 22 -179 17 -365 -4 -177 -9 -233 -31 -333 -36 -171
-78 -291 -151 -440 -103 -208 -170 -292 -365 -460 -223 -191 -266 -253 -334
-478 -27 -89 -35 -131 -33 -181 2 -54 -2 -69 -18 -86 -28 -27 -184 -90 -242
-96 -30 -4 -129 6 -258 25 -334 48 -398 54 -615 54 -349 0 -514 -36 -870 -189
-63 -27 -71 -28 -242 -28 -146 -1 -180 2 -193 15 -8 8 -24 48 -35 88 -43 154
-119 274 -357 568 -56 69 -122 165 -152 220 -30 54 -71 130 -93 168 -22 39
-64 129 -93 200 -30 72 -76 185 -104 253 -28 67 -89 233 -135 370 -46 136
-111 324 -144 419 -50 141 -66 203 -91 355 -42 255 -62 480 -61 697 1 156 5
205 26 302 47 226 107 357 216 474 84 90 148 132 226 148 72 15 92 30 92 71 0
55 47 299 69 360 97 273 311 436 556 424 128 -7 198 -53 267 -175 23 -40 33
-51 43 -43 7 5 47 61 90 123 115 165 157 212 233 254 123 69 203 92 322 92 65
1 129 -5 165 -15z m371 -119 c104 -43 213 -168 256 -293 33 -97 32 -215 -4
-300 -37 -90 -84 -162 -155 -244 -34 -39 -65 -79 -68 -89 -4 -11 -29 -26 -68
-39 -34 -11 -123 -49 -197 -85 -74 -35 -136 -62 -138 -60 -9 9 37 121 108 265
56 116 95 178 149 245 83 102 171 271 171 327 0 50 -40 154 -83 217 -20 29
-37 57 -37 62 0 13 26 11 66 -6z m1192 -1376 c15 -17 55 -58 88 -92 72 -72 86
-96 86 -145 0 -54 -21 -64 -84 -43 -46 16 -54 23 -80 72 -15 30 -28 62 -28 72
0 10 -15 52 -34 93 l-35 74 30 0 c21 0 38 -9 57 -31z m601 -607 c50 -34 175
-173 235 -262 298 -444 324 -1144 64 -1734 -104 -236 -278 -470 -432 -580
-156 -111 -255 -283 -306 -531 -15 -69 -38 -95 -84 -95 -24 1 -45 14 -99 66
l-68 65 16 139 c18 156 35 233 68 300 24 51 105 135 188 197 67 49 270 272
353 386 160 224 258 519 286 865 5 67 15 142 21 167 6 24 9 64 5 87 -3 24 -10
95 -15 158 -5 63 -17 147 -26 185 -63 253 -100 342 -218 518 -70 105 -68 122
12 69z m2022 -891 c24 -21 58 -46 74 -55 17 -9 52 -32 79 -51 54 -39 130 -64
376 -125 196 -49 290 -80 385 -128 l70 -35 150 7 c143 6 254 -3 280 -24 6 -4
30 -12 55 -17 75 -15 62 -32 -80 -103 -71 -36 -130 -68 -130 -71 0 -16 40 -38
80 -44 91 -14 233 -17 240 -5 4 7 30 10 66 8 l59 -3 -25 -26 c-18 -18 -41 -28
-77 -33 -31 -4 -57 -14 -68 -26 -18 -20 -17 -20 38 -20 31 0 71 6 89 14 18 8
45 17 60 20 14 3 53 28 85 56 32 27 62 48 67 47 5 -2 14 -21 21 -43 6 -21 20
-55 31 -74 15 -28 19 -55 18 -140 0 -96 -3 -115 -41 -225 -37 -109 -42 -132
-46 -245 -3 -76 -12 -147 -22 -180 -32 -105 -257 -676 -310 -786 -52 -111
-230 -394 -256 -409 -8 -5 -6 1 4 12 24 28 21 40 -13 48 -26 6 -39 -2 -112
-62 -100 -83 -226 -173 -244 -173 -7 0 -25 -11 -41 -23 -31 -26 -157 -77 -190
-77 -31 0 -34 22 -16 93 20 76 12 141 -23 192 -13 20 -24 47 -24 60 0 31 -30
62 -67 71 -16 4 -41 17 -56 30 -26 22 -112 54 -146 54 -9 0 -59 11 -112 25
-52 13 -106 26 -120 29 -55 10 -111 25 -116 29 -3 3 12 9 33 13 28 5 46 2 67
-10 16 -9 50 -16 77 -16 30 0 52 -5 60 -15 7 -8 26 -15 41 -15 28 0 39 8 121
83 19 18 19 30 -5 87 -9 23 -12 19 -25 -42 l-15 -68 -63 0 c-54 0 -64 3 -69
20 -8 26 -40 43 -65 35 -11 -4 -30 1 -42 9 -14 10 -44 16 -80 16 -70 0 -128
21 -228 84 -41 25 -79 46 -85 46 -5 0 -15 10 -20 23 -14 32 -72 57 -132 57
-48 0 -52 2 -62 31 -6 18 -11 49 -11 70 0 44 -9 48 -35 19 -14 -15 -17 -30
-12 -67 3 -27 8 -55 12 -64 4 -10 -2 -19 -17 -26 -19 -8 -25 -5 -43 21 -45 66
-259 126 -347 97 -42 -14 -131 -88 -170 -142 -15 -21 -32 -39 -36 -39 -13 0
-118 210 -136 271 -9 31 -25 161 -36 290 -12 128 -23 236 -25 239 -8 13 25
184 51 264 14 44 47 134 74 200 27 67 60 159 74 206 13 47 59 161 101 254 67
151 83 177 140 237 35 38 80 93 99 124 46 72 66 79 164 60 93 -19 261 -20 328
-4 44 11 104 37 189 83 50 27 87 21 136 -23z m-1336 -498 c12 -12 15 -25 10
-52 -10 -52 -14 -55 -41 -26 -20 21 -27 24 -44 15 -11 -6 -20 -16 -20 -22 0
-14 -60 -78 -72 -78 -12 0 -10 72 3 109 21 61 124 94 164 54z m-242 -510 c8
-16 17 -62 20 -105 6 -84 15 -108 59 -154 l30 -32 -11 -73 c-7 -40 -13 -75
-15 -76 -7 -7 -56 40 -76 72 -23 37 -70 211 -70 261 0 40 28 134 40 134 5 0
16 -12 23 -27z m-153 -338 c0 -43 29 -98 75 -145 48 -49 75 -103 75 -149 0
-16 -13 -83 -29 -148 -51 -207 -64 -307 -64 -463 1 -195 30 -306 131 -502 2
-5 -34 -8 -80 -8 -128 0 -203 -29 -308 -119 -28 -25 -74 -41 -235 -87 -419
-117 -623 -177 -1019 -299 -244 -75 -422 -125 -440 -123 -30 3 -31 4 -30 53 9
328 16 514 19 531 4 19 10 20 58 16 104 -8 365 68 815 239 258 98 283 110 337
170 48 54 64 94 81 206 30 200 94 302 274 438 53 40 118 97 145 126 56 63 137
185 163 246 19 48 32 55 32 18z m3777 -519 c25 -21 28 -32 31 -97 3 -59 -2
-89 -21 -146 -70 -205 -232 -400 -401 -484 -74 -36 -186 -63 -186 -45 0 13 22
50 58 99 32 41 41 47 72 47 108 0 293 165 367 327 31 67 43 206 20 237 -12 17
-15 17 -51 2 l-39 -16 7 32 c9 47 33 68 77 68 26 0 47 -8 66 -24z m-2897 -330
c0 -2 3 -11 6 -20 5 -13 -2 -16 -40 -16 -25 0 -46 -2 -46 -5 0 -3 9 -24 20
-45 11 -22 35 -93 54 -158 60 -209 113 -311 220 -417 84 -83 171 -136 281
-172 103 -33 271 -37 380 -9 95 25 223 86 293 139 71 55 96 62 122 34 33 -35
30 -41 -88 -170 -24 -26 -55 -72 -68 -102 -46 -100 -187 -201 -314 -225 -66
-13 -214 -3 -252 16 -23 12 -78 96 -78 119 0 3 17 5 39 5 36 0 72 22 54 33
-17 11 -352 137 -363 137 -12 0 -10 -27 4 -61 5 -13 -1 -19 -25 -28 -51 -18
-85 -13 -137 19 -27 17 -56 30 -65 30 -9 0 -23 13 -32 29 -8 16 -27 40 -43 53
-16 12 -46 55 -67 93 l-38 70 2 115 c2 81 9 143 26 210 25 101 39 179 50 273
l6 57 50 0 c27 0 49 -2 49 -4z m126 -80 c3 -8 32 -30 64 -50 32 -20 60 -42 63
-49 3 -8 25 -19 49 -26 56 -16 82 -36 74 -56 -5 -13 -23 -7 -108 36 -113 57
-178 104 -178 129 0 30 26 42 36 16z m244 -285 c202 -104 410 -177 642 -226
67 -14 124 -28 126 -30 9 -9 -13 -27 -58 -49 -48 -23 -50 -24 -137 -9 -242 41
-499 142 -775 305 -61 36 -69 45 -88 94 -11 30 -20 66 -20 79 0 23 6 20 108
-46 59 -38 150 -92 202 -118z m87 77 c-3 -7 -5 -2 -5 12 0 14 2 19 5 13 2 -7
2 -19 0 -25z m-42 -16 c-3 -3 -11 0 -18 7 -9 10 -8 11 6 5 10 -3 15 -9 12 -12z
m42 -8 c-3 -3 -12 -4 -19 -1 -8 3 -5 6 6 6 11 1 17 -2 13 -5z m128 -24 c21
-17 48 -33 60 -36 11 -3 21 -13 21 -23 0 -17 -4 -16 -53 5 -30 13 -62 24 -72
24 -10 0 -31 10 -46 22 -26 20 -26 22 -9 29 36 14 61 9 99 -21z m172 -106 c-3
-3 -12 -4 -19 -1 -8 3 -5 6 6 6 11 1 17 -2 13 -5z m238 -34 c3 -5 26 -10 51
-10 37 0 44 -3 44 -20 0 -16 -7 -20 -37 -20 -54 0 -107 17 -128 40 -18 20 -17
20 23 20 22 0 44 -4 47 -10z m224 -76 c10 -9 -65 -3 -78 5 -10 6 1 8 30 4 24
-3 46 -7 48 -9z m888 -16 c-3 -7 -5 -2 -5 12 0 14 2 19 5 13 2 -7 2 -19 0 -25z
m-2753 -544 c12 -4 16 -20 16 -55 0 -27 -5 -49 -10 -49 -6 0 -20 20 -32 46
-19 39 -20 46 -8 54 18 12 15 11 34 4z m534 -118 c248 -189 559 -294 852 -284
119 3 130 -5 70 -53 -70 -56 -117 -46 -69 15 l20 26 -28 0 c-21 0 -33 -8 -46
-30 -26 -43 -172 -156 -252 -195 -223 -108 -478 -78 -704 82 -135 96 -181 153
-275 340 -37 74 -46 129 -24 151 17 17 137 16 144 -2 3 -7 -7 -42 -21 -76 -32
-76 -30 -111 7 -124 45 -16 53 -4 154 223 l24 54 43 -39 c23 -22 70 -61 105
-88z m-242 -429 c96 -75 195 -131 289 -164 74 -26 90 -28 230 -27 108 0 163 5
198 16 70 24 60 -16 -20 -75 -27 -19 -104 -92 -173 -162 -141 -143 -290 -265
-325 -265 -12 0 -27 6 -33 13 -5 6 -40 104 -77 217 -69 211 -84 248 -140 360
-41 79 -54 140 -32 140 8 0 46 -24 83 -53z"/>
<path d="M2448 9351 c-83 -27 -118 -52 -215 -155 -233 -248 -293 -444 -314
-1031 -11 -288 -3 -522 22 -673 5 -31 14 -107 19 -169 6 -62 26 -184 46 -273
20 -88 33 -167 30 -176 -3 -8 -17 -19 -30 -26 -34 -15 -71 9 -80 54 -79 391
-104 554 -116 753 -18 293 -9 647 20 835 29 187 31 380 6 465 -42 143 -141
198 -288 161 -210 -53 -309 -173 -383 -465 -30 -119 -32 -209 -6 -266 17 -38
91 -115 110 -115 11 0 44 -76 70 -165 34 -115 51 -240 51 -377 0 -175 35 -555
66 -707 14 -68 45 -184 69 -258 61 -181 60 -243 -5 -243 -51 0 -57 14 -126
295 -63 258 -66 281 -85 510 -11 132 -24 328 -29 435 -15 298 -52 428 -138
485 -48 31 -116 41 -181 25 -159 -38 -313 -265 -365 -539 -35 -185 -30 -552
10 -731 8 -36 21 -110 29 -165 19 -130 30 -180 65 -295 16 -52 42 -150 59
-217 16 -66 50 -173 75 -236 26 -64 58 -155 72 -204 30 -104 102 -290 152
-388 19 -38 43 -95 54 -125 10 -30 34 -81 53 -112 20 -31 42 -75 50 -97 8 -23
34 -73 59 -111 25 -38 52 -83 61 -99 8 -17 48 -70 88 -118 40 -49 84 -104 97
-123 14 -19 46 -58 71 -86 62 -68 116 -166 156 -283 18 -53 39 -104 48 -113
13 -15 33 -18 139 -18 139 0 173 8 336 80 118 52 321 104 469 120 226 25 678
2 971 -50 142 -25 184 -25 237 -1 66 30 94 80 142 248 60 213 89 267 211 396
57 59 128 126 160 147 59 40 104 87 114 117 4 10 22 28 41 40 19 13 38 35 41
50 4 15 21 42 38 59 42 43 171 303 191 384 9 36 27 99 40 140 38 123 48 234
43 475 -5 215 -6 223 -42 360 -76 284 -164 444 -340 619 -116 115 -222 145
-333 96 -104 -46 -152 -121 -153 -236 0 -85 21 -158 97 -339 30 -71 59 -154
64 -183 21 -109 -27 -338 -90 -433 -145 -218 -401 -360 -649 -361 -107 0 -159
10 -259 47 -114 43 -223 114 -324 210 -90 86 -171 285 -192 472 -9 88 -8 118
7 215 42 267 100 409 197 488 32 25 86 60 122 78 159 79 296 82 487 12 196
-72 237 -82 316 -77 55 3 83 10 119 31 84 50 135 160 135 292 0 120 -35 189
-136 267 -155 119 -183 139 -234 166 -132 70 -272 97 -428 81 -269 -28 -450
-126 -680 -366 -143 -150 -163 -188 -173 -333 -11 -172 -17 -198 -45 -205 -33
-9 -60 8 -73 45 -17 50 35 381 105 669 35 144 37 147 192 435 126 235 167 302
215 354 80 87 111 155 112 247 0 129 -69 223 -202 275 -82 31 -255 37 -335 10z
m-1725 -1708 c8 -14 -12 -53 -28 -53 -21 0 -30 27 -15 45 13 16 36 20 43 8z
m477 -643 c0 -5 -4 -10 -9 -10 -6 0 -13 5 -16 10 -3 6 1 10 9 10 9 0 16 -4 16
-10z m1641 -1261 c14 -27 -4 -24 -38 5 l-28 24 28 -5 c15 -3 32 -14 38 -24z
m-115 -36 c17 -17 17 -18 -5 -21 -27 -4 -47 11 -37 27 10 16 22 14 42 -6z
m1092 -179 c42 -12 16 -108 -32 -120 -47 -11 -61 -2 -64 43 -3 39 0 44 30 63
37 22 35 22 66 14z m-1512 -982 c21 -42 7 -62 -42 -62 -39 0 -46 3 -54 26 -6
14 -10 34 -10 45 0 18 6 20 47 17 38 -2 50 -8 59 -26z"/>
<path d="M3250 7389 c-70 -12 -163 -56 -216 -102 -107 -93 -196 -367 -181
-552 10 -112 52 -296 82 -356 84 -168 234 -281 429 -324 259 -58 584 75 704
286 39 68 82 229 82 305 0 74 -31 193 -81 306 -51 118 -79 210 -79 258 0 49
-19 64 -71 57 -64 -8 -165 10 -289 54 -206 73 -278 86 -380 68z m310 -138
c102 -36 169 -53 223 -57 78 -7 117 -27 117 -59 0 -23 -102 -19 -233 9 -159
34 -207 38 -284 26 -189 -29 -333 -166 -390 -372 l-18 -63 -7 40 c-39 221 76
453 259 521 68 26 169 12 333 -45z m67 -155 c63 -18 116 -26 170 -26 53 0 85
-5 99 -15 29 -20 112 -209 130 -297 18 -87 12 -144 -26 -250 -91 -250 -268
-356 -580 -346 -102 4 -134 8 -175 27 -151 68 -236 206 -238 386 -2 258 150
494 350 545 58 14 168 5 270 -24z"/>
<path d="M3270 8865 c0 -8 9 -15 20 -15 11 0 20 7 20 15 0 8 -9 15 -20 15 -11
0 -20 -7 -20 -15z"/>
<path d="M3125 8580 c-27 -30 -13 -70 25 -70 32 0 46 25 36 66 -8 29 -36 32
-61 4z"/>
<path d="M5237 6104 c-11 -11 -8 -49 5 -62 16 -16 43 -15 56 1 24 28 -35 87
-61 61z"/>
<path d="M4390 4630 c-24 -24 -25 -48 -4 -78 21 -30 58 -28 83 4 27 34 26 40
-4 69 -29 30 -49 31 -75 5z"/>
<path d="M6443 6255 c-29 -8 -72 -27 -95 -41 -47 -30 -131 -112 -169 -165 -21
-30 -21 -32 -3 -25 189 73 334 73 493 0 71 -32 153 -88 276 -189 132 -108 140
-112 173 -88 71 53 84 119 39 195 -36 62 -151 145 -314 227 -167 84 -303 113
-400 86z"/>
<path d="M6125 5698 c-46 -17 -84 -47 -100 -78 -48 -93 28 -253 138 -289 19
-7 38 -19 41 -27 9 -23 70 -44 126 -44 48 0 52 -2 61 -30 9 -23 20 -32 52 -42
23 -6 52 -22 65 -34 26 -25 71 -39 84 -26 5 5 -2 22 -19 42 -16 19 -23 35 -17
37 45 15 107 68 133 115 17 29 32 57 34 63 6 17 79 -46 93 -82 10 -23 14 -62
12 -116 l-3 -82 -62 -3 c-35 -2 -63 -7 -63 -13 0 -5 12 -21 26 -36 28 -27 48
-27 115 1 48 20 63 72 57 191 l-4 85 33 0 c42 0 43 17 1 56 -52 49 -82 66
-288 161 -301 139 -439 180 -515 151z m155 -109 c72 -27 74 -28 57 -47 -27
-32 -40 -93 -34 -165 6 -68 6 -69 -16 -62 -12 4 -39 9 -60 12 -68 9 -159 143
-143 208 19 74 92 94 196 54z m228 -84 c34 -14 40 -20 31 -31 -20 -24 -49 -19
-107 21 -8 6 12 35 22 32 6 -3 30 -13 54 -22z"/>
<path d="M7753 5656 c-57 -48 -67 -150 -20 -180 13 -8 68 -17 127 -21 130 -9
272 -29 348 -51 143 -41 274 -140 342 -260 l34 -59 9 40 c11 52 2 167 -18 227
-23 66 -80 125 -171 179 -156 92 -311 137 -499 146 -120 6 -120 6 -152 -21z"/>
<path d="M7555 5107 c-17 -13 -17 -15 5 -37 l23 -23 -22 -16 c-46 -32 -131
-127 -141 -157 -14 -41 2 -84 30 -84 13 0 20 -7 20 -18 0 -31 112 -78 295
-123 93 -23 181 -50 195 -61 32 -23 153 -69 200 -75 47 -6 202 65 228 105 46
70 3 197 -84 248 -88 52 -260 122 -457 188 -200 67 -258 77 -292 53z m181
-139 c-26 -92 -29 -121 -19 -171 6 -29 14 -60 18 -69 6 -16 1 -18 -43 -18 -32
0 -54 5 -62 15 -7 8 -29 19 -49 25 -20 5 -50 19 -68 30 l-32 19 14 47 c27 91
97 137 219 143 25 1 28 -2 22 -21z m205 -44 c15 -19 2 -34 -30 -34 -33 0 -66
31 -51 46 14 14 66 6 81 -12z m256 -110 c140 -61 161 -151 53 -219 -52 -33
-142 -35 -203 -4 -71 36 -71 37 -18 79 54 43 88 91 97 139 4 17 8 31 10 31 2
0 29 -11 61 -26z"/>
<path d="M7365 4996 c-32 -34 -65 -114 -65 -156 0 -9 -11 -54 -26 -101 -26
-87 -38 -211 -22 -241 12 -25 37 -22 42 5 3 12 10 61 16 108 7 48 31 160 55
250 24 90 42 165 40 168 -3 2 -20 -13 -40 -33z"/>
<path d="M6692 4959 c-69 -22 -73 -39 -11 -39 47 0 74 12 89 40 14 25 5 25
-78 -1z"/>
<path d="M7412 4735 c-15 -52 -3 -99 38 -145 20 -24 28 -29 24 -15 -4 15 1 13
21 -10 25 -27 26 -18 2 13 -17 21 -58 123 -66 162 l-8 35 -11 -40z"/>
</g>
</svg>
